<svg width="471" height="120" viewBox="0 0 471 120" fill="none" xmlns="http://www.w3.org/2000/svg">
<g clip-path="url(#clip0_208_263)">
<path d="M61.728 37.7336C65.8468 38.3373 71.568 40.8961 70.1114 48.4044C68.904 54.7072 64.0357 55.8093 61.9772 57.8696C58.4621 59.8044 60.0424 63.9453 55.1741 63.818C56.88 64.069 58.3366 63.9435 58.8147 63.9435C69.8603 63.9435 78.8474 58.1189 78.8474 50.7121C78.8474 44.162 71.4424 38.5866 61.728 37.7336Z" fill="black"/>
<path d="M49.2905 58.765V58.6394C50.5182 54.2917 50.3723 52.213 50.2062 49.7982C50.1656 49.2166 50.1231 48.613 50.1028 47.989C49.9994 45.0351 50.8929 42.2068 52.6819 39.877C46.608 41.2911 41.8856 44.7231 40.8037 48.9674L40.7631 49.1336L31.0283 75.6351H46.1502L50.7471 63.7366C49.9366 62.6142 48.8954 60.8456 49.2905 58.7853" fill="black"/>
<path d="M105.017 49.1538C103.955 43.4326 100.399 38.3575 94.7206 34.4677C83.6529 26.8948 65.2449 24.3785 46.6671 27.936C28.2794 31.4511 12.1772 40.5212 4.64863 51.6277C0.736627 57.3914 -0.760603 63.5058 0.363704 69.288C1.46586 75.0295 5.10647 80.1268 10.8683 83.9963C18.5871 89.2172 29.7988 91.9828 42.0923 91.9828C47.4794 91.9828 53.0954 91.4418 58.6929 90.36C77.1231 86.8449 93.2437 77.7545 100.754 66.6461C104.644 60.9065 106.119 54.8529 105.017 49.1538ZM92.8689 64.1298C92.5366 64.9218 92.1619 65.7101 91.7243 66.48C91.5785 66.7311 91.4123 67.0006 91.2665 67.2498C91.1206 67.4991 90.9545 67.7501 90.7883 67.9975C90.6425 68.2486 90.5188 68.4978 90.3526 68.7268C87.6905 72.6794 83.9668 76.2351 79.5139 79.2314C73.5231 83.2671 66.1791 86.2818 58.2129 87.8031C54.3231 88.5526 50.4942 88.9071 46.7723 88.9071C43.0486 88.9071 39.5114 88.5323 36.1422 87.8658C28.632 86.3483 22.1834 83.2468 17.6289 78.9415C15.9028 77.2985 14.4462 75.5095 13.3219 73.5545C13.2591 73.4289 13.176 73.3052 13.1151 73.1575C13.0523 73.0357 12.9692 72.9305 12.9065 72.8049C11.9908 71.0603 11.304 69.2068 10.9089 67.2517C10.0763 62.9058 10.6394 58.4511 12.5317 54.1458C13.1982 52.6061 14.0308 51.1089 15.0296 49.6098C16.1742 47.904 17.5256 46.3015 19.0228 44.7637C20.5422 43.2461 22.2259 41.7895 24.0572 40.4363C24.3896 40.1668 24.7643 39.9378 25.1169 39.6886C25.3865 39.48 25.6579 39.2935 25.9496 39.1071C26.1785 38.9612 26.4074 38.8154 26.6363 38.6695C29.5699 36.7772 32.8154 35.1323 36.2677 33.7606C38.016 33.0941 39.8049 32.4701 41.6345 31.9514C43.464 31.4326 45.3582 30.9748 47.2726 30.6C54.9692 29.1231 62.6234 29.1231 69.5096 30.5169C75.0425 31.6191 80.0566 33.5945 84.1754 36.4043C85.6099 37.3809 86.9003 38.4221 88.0449 39.5446C88.128 39.6277 88.1908 39.7108 88.2739 39.7938C88.44 39.96 88.5859 40.1465 88.752 40.3145C88.9809 40.5434 89.1896 40.7723 89.3982 41.0012C92.04 43.9957 93.7662 47.4498 94.4529 51.2141C95.2819 55.4566 94.7409 59.8468 92.8689 64.1298Z" fill="black"/>
<path d="M131.062 39.6665H120.14V76.6727H127.671V62.8413H132.414C141.877 62.8413 145.268 56.1637 145.268 51.3157C145.27 48.8825 144.415 39.6665 131.062 39.6665ZM131.062 57.0167H127.671V45.493H131.062C135.45 45.493 137.385 48.0517 137.385 51.0684C137.385 53.8764 135.554 57.0167 131.062 57.0167Z" fill="black"/>
<path d="M164.075 64.1927L162.369 69.6426H162.12L160.54 64.4216L155.442 49.2573H147.557L158.25 78.2567L157.647 79.8352C156.668 82.2684 155.108 82.8739 152.675 82.8739C151.593 82.8739 150.74 82.6229 149.887 82.3958L149.409 87.6167C150.74 88.0967 152.071 88.3459 153.528 88.3459C161.287 88.3459 163.117 84.4561 164.699 80.0862L176.348 49.2573H169.069L164.097 64.1927H164.075Z" fill="black"/>
<path d="M193.8 71.9521C188.828 71.9521 185.791 68.0641 185.791 63.0906C185.791 57.6204 189.556 54.1035 194.278 54.1035C195.984 54.1035 197.441 54.229 198.646 54.8327L199.126 49.6118C197.066 49.1336 194.882 48.8826 193.05 48.8826C183.338 48.8826 178.241 55.4346 178.241 62.7176C178.241 69.9952 182.734 77.1527 192.552 77.1527C195.589 77.1527 198.251 76.549 199.584 76.0487L199.23 70.8278C197.398 71.557 195.465 71.9096 193.78 71.9096" fill="black"/>
<path d="M218.324 71.9521C213.229 71.9521 210.316 68.0641 210.316 63.0906C210.316 57.6204 213.956 54.1035 218.804 54.1035C220.51 54.1035 221.841 54.229 223.172 54.8327L223.65 49.6118C221.59 49.1336 219.282 48.8826 217.577 48.8826C207.862 48.8826 202.765 55.4346 202.765 62.7176C202.765 69.9952 207.258 77.1527 216.973 77.1527C220.135 77.1527 222.672 76.549 224.003 76.0487L223.754 70.8278C221.924 71.557 219.864 71.9096 218.304 71.9096" fill="black"/>
<path d="M253.025 49.2573H245.014L236.153 61.7595H235.924V49.2573H228.768V76.6949H235.924V63.589H236.153L245.389 76.6949H254.479L242.83 62.2395L253.025 49.2573Z" fill="black"/>
<path d="M265.17 68.5626L265.296 63.7164V49.2573H258.118V76.6949H265.772L277.898 57.3915H278.023L277.796 62.6124V76.6949H284.95V49.2573H276.942L265.17 68.5626Z" fill="black"/>
<path d="M310.686 49.2573L298.911 68.5626H298.787L299.038 63.6942V49.2573H291.86V76.6949H299.514L311.644 57.3915H311.767L311.516 62.6124V76.6949H318.694V49.2573H310.686Z" fill="black"/>
<path d="M305.588 44.5348C310.311 44.5348 312.993 41.7471 314.199 39.3138L311.642 36.8806C309.705 39.0646 307.272 39.4394 305.566 39.4394C303.735 39.4394 301.322 39.0646 299.369 36.8806L296.83 39.3138C298.161 41.7471 300.72 44.5348 305.566 44.5348" fill="black"/>
<path d="M357.884 45.493C360.798 45.493 363.105 45.9712 365.293 46.8241L365.666 40.5213C362.878 39.6684 360.319 39.314 357.408 39.314C345.884 39.314 336.895 45.6186 336.895 58.4937C336.895 71.3687 346.841 77.1933 356.077 77.1933C358.988 77.1933 362.38 76.7152 365.666 75.613L365.186 69.3103C363.253 70.1632 360.692 70.8906 357.426 70.8906C350.749 70.8906 344.802 67.25 344.802 58.3884C344.802 50.7343 349.649 45.5115 357.908 45.5115" fill="black"/>
<path d="M388.944 62.3632V62.1121C391.732 61.6339 393.914 59.4499 393.914 56.0382C393.914 53.125 392.457 49.2573 384.572 49.2573H371.112V76.6746H384.947C391.124 76.6746 395.14 73.885 395.14 69.0389C395.14 64.1927 391.979 62.6124 388.944 62.3632ZM378.395 54.1053H382.763C384.094 54.1053 386.88 54.229 386.88 57.0167C386.88 59.8062 384.22 60.0555 382.763 60.0555H378.395V54.1053ZM382.868 71.9539H378.395V64.7964H382.868C384.574 64.7964 387.737 64.9016 387.737 68.3115C387.735 71.9539 384.22 71.9539 382.868 71.9539Z" fill="black"/>
<path d="M425.492 63.5706C425.492 61.1558 425.369 48.8826 412.99 48.8826C405.585 48.8826 399.41 54.229 399.41 62.965C399.41 72.6795 405.962 77.173 414.218 77.173C417.358 77.173 420.77 76.5675 423.558 75.4653V70.0155C420.999 71.2229 418.213 71.9503 415.071 71.9503C409.601 71.9503 407.166 68.6641 406.937 65.1472H425.494L425.492 63.5706ZM406.915 60.3029C406.915 56.6623 409.327 53.8746 412.49 53.8746C415.152 53.8746 418.315 55.6838 418.191 60.3029H406.915Z" fill="black"/>
<path d="M427.926 54.6038H436.538V76.6949H443.694V54.6038H452.182V49.2573H427.926V54.6038Z" fill="black"/>
<path d="M468.53 37.3791C467.867 36.1939 466.951 35.3004 465.764 34.6542C464.577 34.0302 463.372 33.696 462.144 33.696C460.916 33.696 459.69 34.0284 458.502 34.6542C457.337 35.2985 456.402 36.192 455.736 37.3791C455.09 38.5662 454.759 39.792 454.759 41.0825C454.759 42.373 455.071 43.5785 455.736 44.7637C456.382 45.9287 457.298 46.8444 458.463 47.4905C459.628 48.1348 460.855 48.4671 462.144 48.4671C463.434 48.4671 464.64 48.1348 465.803 47.4905C466.968 46.8444 467.884 45.9305 468.53 44.7637C469.176 43.5785 469.506 42.3508 469.506 41.0825C469.506 39.8142 469.176 38.5662 468.53 37.3791ZM467.47 44.1397C466.929 45.1182 466.18 45.8677 465.201 46.429C464.225 46.9699 463.204 47.2394 462.144 47.2394C461.084 47.2394 460.041 46.9699 459.066 46.429C458.088 45.8677 457.337 45.1182 456.798 44.1397C456.257 43.1631 455.969 42.1422 455.969 41.0825C455.969 40.0228 456.257 38.9816 456.798 38.005C457.361 37.0062 458.129 36.2567 459.109 35.7157C460.086 35.197 461.106 34.9256 462.146 34.9256C463.187 34.9256 464.184 35.1951 465.162 35.7157C466.141 36.2567 466.909 37.0062 467.472 38.005C468.013 38.9816 468.282 40.0228 468.282 41.0825C468.282 42.1422 468.011 43.1631 467.47 44.1397Z" fill="black"/>
<path d="M464.599 43.5988C464.142 42.8696 463.745 42.3508 463.434 42.0388C463.244 41.8727 463.038 41.7268 462.746 41.6234C463.434 41.5607 463.996 41.3318 464.391 40.8942C464.806 40.4567 465.015 39.9582 465.015 39.3748C465.015 38.9594 464.889 38.5847 464.64 38.2099C464.413 37.8351 464.079 37.5859 463.641 37.4401C463.226 37.2942 462.559 37.2314 461.623 37.2314H458.898V45.157H460.189V41.7878H460.937C461.372 41.7878 461.729 41.8708 461.956 42.0573C462.288 42.3065 462.746 42.9305 463.307 43.909L463.994 45.157H465.574L464.599 43.5988ZM461.73 40.6874H460.191V38.2948H461.647C462.271 38.2948 462.687 38.3373 462.916 38.4407C463.165 38.5238 463.333 38.6696 463.477 38.8561C463.602 39.0444 463.665 39.2511 463.665 39.4801C463.665 39.8548 463.521 40.1447 463.248 40.3533C462.977 40.5822 462.476 40.6874 461.73 40.6874Z" fill="black"/>
</g>
<defs>
<clipPath id="clip0_208_263">
<rect width="470.769" height="120" fill="white"/>
</clipPath>
</defs>
</svg>
