<svg width="377" height="50" viewBox="0 0 377 50" fill="none" xmlns="http://www.w3.org/2000/svg">
<g clip-path="url(#clip0_88_39)">
<path d="M11.506 49.0829L0 0.861454H7.54L16.3882 37.8975L25.866 0.857178H32.9008L42.4087 38.0904L51.2909 0.865744H58.8309L47.3286 49.0744H38.5784L29.406 13.054L20.2034 49.0529L11.506 49.0829Z" fill="black"/>
<path d="M64.0448 0.887207H71.2304V49.053H64.0448V0.887207Z" fill="black"/>
<path d="M86.5931 41.4975H104.082V49.053H79.547V0.887207H86.5856L86.5931 41.4975Z" fill="black"/>
<path d="M126.186 0.942922C132.082 0.942922 136.987 3.27429 140.855 7.88559C144.723 12.4969 146.751 18.2181 146.751 24.998C146.751 31.7778 144.768 37.4262 140.855 42.1103C136.941 46.7945 132.082 49.053 126.186 49.053H109.289V0.887207H126.186V0.942922ZM126.186 41.5532C130.25 41.5532 133.567 39.9975 136.048 36.8862C138.623 33.7748 139.912 29.7764 139.912 25.0537C139.912 20.2195 138.623 16.3325 136.048 13.2211C133.473 10.1098 130.201 8.55414 126.186 8.55414H116.384V41.5532H126.186Z" fill="black"/>
<path d="M184.658 35.2832C184.702 37.1395 184.387 38.9841 183.735 40.6871C183.084 42.3901 182.112 43.9101 180.888 45.1401C178.402 47.7641 175.112 49.1804 171.72 49.0871H153.341V0.887047H170.404C173.7 0.8174 176.894 2.19063 179.324 4.72266C180.51 5.90567 181.453 7.36999 182.086 9.01236C182.72 10.6547 183.029 12.4351 182.992 14.2281C182.992 18.4494 181.507 21.6765 178.634 24.0635C182.378 26.2835 184.658 30.2905 184.658 35.2832ZM160.425 8.32684V20.9993H170.434C171.887 20.9564 173.268 20.27 174.283 19.0864C175.297 17.9028 175.865 16.3156 175.865 14.6631C175.865 13.0106 175.297 11.4234 174.283 10.2398C173.268 9.05623 171.887 8.36981 170.434 8.32684H160.425ZM171.773 41.6216C173.316 41.5773 174.783 40.8492 175.861 39.5926C176.939 38.336 177.542 36.6504 177.542 34.8954C177.542 33.1403 176.939 31.4547 175.861 30.1981C174.783 28.9415 173.316 28.2134 171.773 28.1691H160.425V41.6773H171.773V41.6216Z" fill="black"/>
<path d="M198.385 41.5189H217.412V49.0787H191.346V0.887207H217.114V8.447H198.385V20.9524H215.58V28.4564H198.385V41.5189Z" fill="black"/>
<path d="M248.236 49.0787L239.116 31.5078H230.792V49.0787H223.757V0.887207H240.952C244.816 0.887207 248.085 2.38717 250.713 5.44708C252.023 6.85025 253.061 8.5489 253.761 10.4344C254.461 12.3199 254.807 14.3506 254.777 16.3968C254.753 19.4262 253.927 22.3772 252.406 24.8654C250.886 27.3535 248.742 29.2635 246.253 30.3464L256.013 49.0787H248.236ZM230.792 8.33557V24.4537H240.903C244.673 24.4537 247.64 20.8966 247.64 16.3968C247.64 11.8969 244.624 8.33557 240.903 8.33557H230.792Z" fill="black"/>
<path d="M285.845 49.0785L276.778 31.5076H268.454V49.0785H261.416V0.861328H278.603C282.471 0.861328 285.74 2.36558 288.367 5.4212C289.677 6.82665 290.715 8.52693 291.415 10.4137C292.115 12.3004 292.461 14.3322 292.431 16.3795C292.408 19.4102 291.583 22.3628 290.063 24.8526C288.542 27.3423 286.397 29.2537 283.907 30.3376L293.683 49.0785H285.845ZM268.454 8.31398V24.4407H278.562C282.332 24.4407 285.302 20.8836 285.302 16.3795C285.302 11.8753 282.286 8.31398 278.562 8.31398H268.454Z" fill="black"/>
<path d="M298.829 0.865723H305.868V49.0786H298.829V0.865723Z" fill="black"/>
<path d="M321.227 41.5189H340.258V49.0787H314.192V0.887207H339.96V8.447H321.227V20.9524H338.422V28.4564H321.227V41.5189Z" fill="black"/>
<path d="M345.162 38.1075L351.258 34.109C352.993 39.5517 356.51 42.2216 361.912 42.2216C367.315 42.2216 369.89 39.6503 369.89 35.8875C369.924 34.9942 369.744 34.1071 369.369 33.3212C368.994 32.5353 368.437 31.8803 367.76 31.4262C366.372 30.3677 363.794 29.202 360.129 27.9978C356.012 26.6092 353.984 25.7221 351.108 23.6093C348.333 21.3851 346.961 18.218 346.961 13.8853C346.961 9.55258 348.299 6.27411 351.025 3.77561C353.75 1.27711 356.97 0 360.789 0C367.677 0 372.977 3.99845 375.752 10.6111L369.807 14.4424C368.005 9.99828 364.985 7.71834 360.789 7.71834C356.672 7.71834 354.048 10.054 354.048 13.7182C354.048 17.2752 356.129 18.9423 362.719 21.218C364.355 21.8308 365.543 22.2765 366.286 22.6108C367.028 22.945 368.122 23.3865 369.46 23.9993C370.582 24.4615 371.634 25.1162 372.582 25.9407C374.844 27.9421 377.286 31.2205 376.989 35.8318C376.989 40.1646 375.605 43.6659 372.778 46.2201C369.95 48.7743 366.338 49.9957 361.777 49.9957C353.437 49.94 347.39 45.4958 345.162 38.1075Z" fill="black"/>
</g>
<defs>
<clipPath id="clip0_88_39">
<rect width="377" height="50" fill="white"/>
</clipPath>
</defs>
</svg>
