<svg width="30" height="21" viewBox="0 0 30 21" fill="none" xmlns="http://www.w3.org/2000/svg">
<g clip-path="url(#clip0_89_342)">
<path d="M27.3586 3.07786C27.3033 3.00497 27.2341 2.94351 27.1547 2.89698C27.0753 2.85046 26.9874 2.81978 26.896 2.80671C26.8046 2.79364 26.7115 2.79843 26.6219 2.82081C26.5324 2.84319 26.4482 2.88271 26.3742 2.93713L15.0328 11.2705C14.9922 11.3004 14.9429 11.3166 14.8922 11.3166C14.8415 11.3166 14.7921 11.3004 14.7515 11.2705L3.63279 2.90021C3.55939 2.84507 3.47567 2.8047 3.38641 2.78141C3.29715 2.75812 3.20411 2.75236 3.1126 2.76447C3.02108 2.77657 2.93288 2.8063 2.85304 2.85196C2.77319 2.89761 2.70326 2.95831 2.64725 3.03057C2.59123 3.10283 2.55022 3.18524 2.52656 3.2731C2.5029 3.36096 2.49705 3.45255 2.50934 3.54264C2.52164 3.63272 2.55184 3.71954 2.59823 3.79814C2.64461 3.87674 2.70626 3.94557 2.77967 4.00071L11.5219 10.583L2.87576 16.9968C2.80128 17.0515 2.73847 17.1201 2.69091 17.1986C2.64336 17.2772 2.61199 17.3642 2.59861 17.4548C2.58522 17.5453 2.59008 17.6375 2.6129 17.7262C2.63573 17.8148 2.67607 17.8982 2.73162 17.9715C2.78718 18.0449 2.85686 18.1067 2.93669 18.1535C3.01652 18.2003 3.10494 18.2312 3.19689 18.2444C3.28884 18.2575 3.38253 18.2528 3.4726 18.2303C3.56268 18.2078 3.64737 18.1681 3.72186 18.1134L12.682 11.455L13.8961 12.3779C14.1792 12.5912 14.5251 12.7079 14.8816 12.7104C15.2381 12.7129 15.5857 12.6011 15.8719 12.3917L17.1469 11.455L26.2125 18.1134C26.2865 18.1678 26.3707 18.2073 26.4602 18.2297C26.5497 18.252 26.6429 18.2568 26.7343 18.2437C26.8257 18.2307 26.9136 18.2 26.993 18.1535C27.0723 18.107 27.1416 18.0456 27.1969 17.9727C27.2521 17.8998 27.2922 17.817 27.3149 17.7288C27.3377 17.6407 27.3425 17.549 27.3292 17.459C27.316 17.3691 27.2848 17.2825 27.2376 17.2044C27.1903 17.1263 27.1279 17.0581 27.0539 17.0037L18.3211 10.5806L27.2156 4.03993C27.3631 3.93027 27.4609 3.76783 27.4876 3.58777C27.5144 3.40771 27.468 3.22453 27.3586 3.07786Z" fill="white"/>
<path d="M26.4844 0.11792H3.51562C2.58322 0.11792 1.68901 0.482528 1.0297 1.13153C0.370395 1.78054 0 2.66078 0 3.57861L0 17.4214C0 18.3392 0.370395 19.2195 1.0297 19.8685C1.68901 20.5175 2.58322 20.8821 3.51562 20.8821H26.4844C27.4168 20.8821 28.311 20.5175 28.9703 19.8685C29.6296 19.2195 30 18.3392 30 17.4214V3.57861C30 2.66078 29.6296 1.78054 28.9703 1.13153C28.311 0.482528 27.4168 0.11792 26.4844 0.11792ZM28.5938 17.4214C28.5938 17.9721 28.3715 18.5002 27.9759 18.8896C27.5803 19.279 27.0438 19.4978 26.4844 19.4978H3.51562C2.95618 19.4978 2.41966 19.279 2.02407 18.8896C1.62849 18.5002 1.40625 17.9721 1.40625 17.4214V3.57861C1.40625 3.02791 1.62849 2.49977 2.02407 2.11037C2.41966 1.72096 2.95618 1.5022 3.51562 1.5022H26.4844C27.0438 1.5022 27.5803 1.72096 27.9759 2.11037C28.3715 2.49977 28.5938 3.02791 28.5938 3.57861V17.4214Z" fill="white"/>
</g>
<defs>
<clipPath id="clip0_89_342">
<rect width="30" height="21" fill="white"/>
</clipPath>
</defs>
</svg>
