<svg width="41" height="27" viewBox="0 0 41 27" fill="none" xmlns="http://www.w3.org/2000/svg">
<path d="M37.3457 5.23535H3.6543C2.17188 5.23535 0.958984 4.09277 0.958984 2.69629C0.958984 1.2998 2.17188 0.157227 3.6543 0.157227H37.3457C38.8281 0.157227 40.041 1.2998 40.041 2.69629C40.041 4.09277 38.8281 5.23535 37.3457 5.23535Z" fill="#231F20"/>
<path d="M37.3457 26.8428H3.6543C2.17188 26.8428 0.958984 25.7002 0.958984 24.3037C0.958984 22.9072 2.17188 21.7646 3.6543 21.7646H37.3457C38.8281 21.7646 40.041 22.9072 40.041 24.3037C40.041 25.7002 38.8281 26.8428 37.3457 26.8428Z" fill="#231F20"/>
<path d="M37.3457 16.0391H3.6543C2.17188 16.0391 0.958984 14.8965 0.958984 13.5C0.958984 12.1035 2.17188 10.9609 3.6543 10.9609H37.3457C38.8281 10.9609 40.041 12.1035 40.041 13.5C40.041 14.8965 38.8281 16.0391 37.3457 16.0391Z" fill="#231F20"/>
</svg>
