<svg width="29" height="29" viewBox="0 0 29 29" fill="none" xmlns="http://www.w3.org/2000/svg">
<path d="M28.0731 22.4813L27.9327 22.0583C27.6003 21.07 26.5107 20.0393 25.5096 19.7677L21.8048 18.7554C20.8001 18.482 19.3669 18.8497 18.6318 19.5848L17.2909 20.9259C12.4179 19.6089 8.59676 15.7869 7.28178 10.914L8.6227 9.57283C9.35779 8.83761 9.72528 7.40606 9.45194 6.40117L8.44168 2.69379C8.16834 1.69073 7.13592 0.600902 6.14972 0.272067L5.7268 0.129846C4.7387 -0.198989 3.32952 0.13357 2.59449 0.868734L0.588746 2.87668C0.230422 3.23317 0.00140869 4.25284 0.00140869 4.25656C-0.0687432 10.6258 2.42824 16.7622 6.93274 21.2676C11.4262 25.7619 17.5385 28.2556 23.888 28.2021C23.9213 28.2021 24.9703 27.9767 25.3286 27.6201L27.3344 25.614C28.0694 24.8789 28.4018 23.4695 28.0731 22.4813Z" fill="white"/>
</svg>
