<svg width="219" height="117" viewBox="0 0 219 117" fill="none" xmlns="http://www.w3.org/2000/svg">
<g clip-path="url(#clip0_88_51)">
<path d="M152.677 7.60429L122.8 25.7772C122.691 25.8434 122.6 25.9383 122.536 26.0526C122.473 26.1669 122.439 26.2966 122.438 26.4289V61.7973C122.438 61.9329 122.404 62.0662 122.339 62.1834C122.274 62.3006 122.181 62.3975 122.068 62.464C121.956 62.5304 121.828 62.5641 121.699 62.5615C121.57 62.5588 121.444 62.52 121.334 62.449L111.139 56.0595C111.033 55.9911 110.945 55.8952 110.885 55.7811C110.825 55.6669 110.793 55.5384 110.794 55.4078V18.9895C110.795 18.8572 110.829 18.7275 110.892 18.6133C110.956 18.499 111.047 18.4041 111.156 18.3379L141.413 -0.160849C141.523 -0.227573 141.648 -0.262695 141.775 -0.262695C141.902 -0.262695 142.027 -0.227573 142.137 -0.160849L152.694 6.30105C152.8 6.37017 152.888 6.46699 152.948 6.58207C153.008 6.69716 153.039 6.82659 153.037 6.95779C153.035 7.08899 153.001 7.21749 152.938 7.33077C152.875 7.44406 152.785 7.53829 152.677 7.60429ZM218.779 18.7904L218.572 55.969C218.572 56.0643 218.548 56.1581 218.503 56.2407C218.457 56.3233 218.392 56.3919 218.313 56.4396L208.308 62.4128C208.229 62.4604 208.14 62.4855 208.049 62.4855C207.958 62.4855 207.869 62.4604 207.79 62.4127C207.712 62.365 207.646 62.2964 207.601 62.2138C207.556 62.1312 207.532 62.0375 207.532 61.9421L206.928 26.0669C206.925 25.9746 206.9 25.8846 206.855 25.8054C206.809 25.7262 206.746 25.6605 206.669 25.6143L176.741 7.42329C176.662 7.37567 176.596 7.3071 176.551 7.22448C176.505 7.14186 176.481 7.0481 176.481 6.95267C176.481 6.85723 176.505 6.76349 176.551 6.68087C176.596 6.59825 176.662 6.52968 176.741 6.48206L187.643 -0.142745C187.721 -0.190405 187.81 -0.215494 187.901 -0.215494C187.992 -0.215494 188.081 -0.190405 188.16 -0.142745L218.52 18.3198C218.599 18.3675 218.664 18.4361 218.71 18.5187C218.755 18.6013 218.779 18.6951 218.779 18.7904Z" fill="black"/>
<path d="M199.597 31.2618L200.028 71.083C200.034 71.4334 199.95 71.779 199.787 72.0844C199.623 72.3898 199.385 72.6439 199.096 72.8207L165.873 93.0028C165.589 93.1787 165.265 93.273 164.935 93.2762C164.605 93.2794 164.28 93.1913 163.993 93.0209L131.149 73.1465C130.862 72.9751 130.624 72.7277 130.457 72.429C130.291 72.1304 130.202 71.7911 130.2 71.4451V31.2618C130.2 30.9176 130.286 30.5795 130.45 30.281C130.613 29.9825 130.848 29.7341 131.131 29.5604L163.941 9.61357C164.229 9.43703 164.556 9.34399 164.89 9.34399C165.223 9.34399 165.551 9.43703 165.838 9.61357L198.648 29.5785C198.932 29.7483 199.169 29.9929 199.335 30.2881C199.501 30.5833 199.592 30.9189 199.597 31.2618ZM186.366 33.2348C186.456 33.1825 186.532 33.1061 186.585 33.0133C186.639 32.9204 186.668 32.8145 186.67 32.7061C186.671 32.5977 186.646 32.4908 186.595 32.3961C186.545 32.3014 186.472 32.2223 186.383 32.1669L165.252 19.2069C165.163 19.1529 165.062 19.1244 164.959 19.1244C164.856 19.1244 164.755 19.1529 164.665 19.2069L143.344 32.185C143.255 32.2388 143.18 32.3166 143.129 32.4103C143.077 32.5041 143.05 32.6106 143.05 32.7189C143.05 32.8273 143.077 32.9337 143.129 33.0275C143.18 33.1213 143.255 33.199 143.344 33.2529L164.648 46.05C164.737 46.104 164.838 46.1324 164.941 46.1324C165.044 46.1324 165.146 46.104 165.235 46.05L186.366 33.2348ZM160.819 54.2676C160.819 54.1421 160.786 54.019 160.726 53.9108C160.665 53.8026 160.578 53.7134 160.474 53.6522L138.963 40.656C138.86 40.5916 138.743 40.5571 138.623 40.5561C138.503 40.5551 138.386 40.5877 138.282 40.6504C138.178 40.7131 138.092 40.8037 138.033 40.9129C137.974 41.0221 137.944 41.1458 137.945 41.2714L137.997 66.8113C137.997 66.9368 138.029 67.06 138.09 67.1682C138.15 67.2763 138.237 67.3656 138.342 67.4267L159.818 80.3867C159.919 80.4459 160.033 80.4768 160.149 80.4763C160.265 80.4758 160.378 80.444 160.479 80.3839C160.579 80.3239 160.664 80.2376 160.723 80.1335C160.783 80.0293 160.816 79.9108 160.819 79.7894V54.2676ZM168.909 78.8844C168.564 79.0292 168.472 79.4214 168.633 80.0609C168.794 80.6763 169.139 80.8211 169.668 80.4953L190.609 67.9698C191.161 67.6439 191.437 67.1432 191.437 66.4674V41.4162C191.436 41.3001 191.407 41.1861 191.351 41.0857C191.295 40.9852 191.216 40.9017 191.12 40.8433C191.024 40.7848 190.916 40.7535 190.805 40.7525C190.695 40.7514 190.585 40.7805 190.489 40.837L169.771 53.3988C169.242 53.7126 168.978 54.1952 168.978 54.8469C169.058 62.9559 169.035 70.9684 168.909 78.8844ZM0.30744 18.4647C12.0029 17.7588 29.1839 16.4918 32.1337 33.0357C33.7782 42.3514 31.3459 49.2236 24.8369 53.6522C18.7304 57.7972 7.50069 56.2949 0.359188 55.8424C-0.192812 55.8062 -0.468811 55.5045 -0.468811 54.9374V19.3155C-0.468811 18.7845 -0.21006 18.5009 0.30744 18.4647ZM9.72594 47.7333C28.8217 49.0004 26.0444 24.456 9.55344 27.153C8.90944 27.2495 8.58744 27.6417 8.58744 28.3295V46.4663C8.58744 47.2627 8.96694 47.6851 9.72594 47.7333ZM46.1407 45.0002L46.2097 55.4623C46.2097 56.1501 45.8877 56.488 45.2437 56.4759L37.6192 56.3492C36.9522 56.3371 36.6187 55.9812 36.6187 55.2813L36.5842 19.587C36.5842 18.9112 36.9062 18.5552 37.5502 18.519C47.9864 17.9217 66.6509 15.5325 66.7372 30.4473C66.8062 45.6699 56.6114 42.4661 46.9859 43.9684C46.4224 44.0529 46.1407 44.3968 46.1407 45.0002ZM47.3482 36.3481C60.1822 38.5383 61.0792 23.6777 46.6237 26.7367C46.0947 26.8453 45.8532 27.1771 45.8992 27.7322L46.3994 35.262C46.4454 35.8775 46.7617 36.2395 47.3482 36.3481ZM92.2499 19.225C106.895 21.4694 108.189 46.3939 96.7004 53.5074C90.6284 57.2542 80.0887 55.9329 72.5677 56.2225C71.9237 56.2466 71.6017 55.9208 71.6017 55.2451L71.6879 19.4965C71.6879 18.8569 71.9984 18.519 72.6194 18.4828C79.9334 18.0846 86.4769 18.332 92.2499 19.225ZM82.1414 47.6609C100.685 48.6746 98.8394 24.9628 82.0897 27.0263C81.3882 27.1228 81.0374 27.5392 81.0374 28.2752V46.4482C81.0374 47.2084 81.4054 47.6127 82.1414 47.6609Z" fill="black"/>
<path d="M165.183 102.144L194.853 84.0795C194.942 84.0258 195.042 83.9974 195.144 83.997C195.247 83.9966 195.347 84.0244 195.436 84.0774C195.525 84.1305 195.599 84.2071 195.651 84.2995C195.703 84.3919 195.731 84.497 195.733 84.6044L195.75 97.6368C195.752 97.7465 195.725 97.8547 195.674 97.9502C195.622 98.0457 195.547 98.125 195.457 98.1798L165.269 116.66C165.18 116.714 165.079 116.743 164.976 116.743C164.873 116.743 164.772 116.714 164.683 116.66L134.375 98.2703C134.284 98.2155 134.209 98.1362 134.157 98.0407C134.106 97.9452 134.08 97.837 134.081 97.7273V84.5139C134.083 84.4066 134.111 84.3014 134.163 84.209C134.215 84.1166 134.289 84.04 134.378 83.9869C134.467 83.9339 134.567 83.9061 134.67 83.9065C134.772 83.9069 134.872 83.9353 134.961 83.989L164.597 102.144C164.686 102.198 164.787 102.226 164.89 102.226C164.993 102.226 165.094 102.198 165.183 102.144Z" fill="black"/>
</g>
<defs>
<clipPath id="clip0_88_51">
<rect width="219" height="117" fill="white"/>
</clipPath>
</defs>
</svg>
